HIERARCHY
ROOT hip
{
  OFFSET 0 0 0
  CHANNELS 6 Xposition Yposition Zposition Zrotation Yrotation Xrotation
  JOINT abdomen
  {
    OFFSET 0 20.6881 -0.73152
    CHANNELS 3 Zrotation Xrotation Yrotation
    JOINT chest
    {
      OFFSET 0 11.7043 -0.48768
      CHANNELS 3 Zrotation Xrotation Yrotation
      JOINT neck
      {
        OFFSET 0 22.1894 -2.19456
        CHANNELS 3 Zrotation Xrotation Yrotation
        JOINT head
        {
          OFFSET -0.24384 7.07133 1.2192
          CHANNELS 3 Zrotation Xrotation Yrotation
          JOINT leftEye
          {
            OFFSET 4.14528 8.04674 8.04672
            CHANNELS 3 Zrotation Xrotation Yrotation
            End Site
            {
              OFFSET 1 0 0
            }
          }
          JOINT rightEye
          {
            OFFSET -3.6576 8.04674 8.04672
            CHANNELS 3 Zrotation Xrotation Yrotation
            End Site
            {
              OFFSET 1 0 0
            }
          }
        }
      }
      JOINT rCollar
      {
        OFFSET -2.68224 19.2634 -4.8768
        CHANNELS 3 Zrotation Xrotation Yrotation
        JOINT rShldr
        {
          OFFSET -8.77824 -1.95073 1.46304
          CHANNELS 3 Zrotation Xrotation Yrotation
          JOINT rForeArm
          {
            OFFSET -28.1742 -1.7115 0.48768
            CHANNELS 3 Zrotation Xrotation Yrotation
            JOINT rHand
            {
              OFFSET -22.5879 0.773209 7.07136
              CHANNELS 3 Zrotation Xrotation Yrotation
              JOINT rThumb1
              {
                OFFSET -1.2192 -0.487915 3.41376
                CHANNELS 3 Zrotation Xrotation Yrotation
                JOINT rThumb2
                {
                  OFFSET -3.37035 -0.52449 3.41376
                  CHANNELS 3 Zrotation Xrotation Yrotation
                  End Site
                  {
                    OFFSET -1.78271 -1.18214 1.43049
                  }
                }
              }
              JOINT rIndex1
              {
                OFFSET -7.75947 0.938293 5.60832
                CHANNELS 3 Zrotation Xrotation Yrotation
                JOINT rIndex2
                {
                  OFFSET -2.54057 -0.884171 1.56538
                  CHANNELS 3 Zrotation Xrotation Yrotation
                  End Site
                  {
                    OFFSET -1.62519 -0.234802 1.16502
                  }
                }
              }
              JOINT rMid1
              {
                OFFSET -8.24714 1.18213 3.41376
                CHANNELS 3 Zrotation Xrotation Yrotation
                JOINT rMid2
                {
                  OFFSET -3.10165 -0.590103 1.0647
                  CHANNELS 3 Zrotation Xrotation Yrotation
                  End Site
                  {
                    OFFSET -2.48547 -0.328903 0.83742
                  }
                }
              }
              JOINT rRing1
              {
                OFFSET -8.82822 0.546677 1.51678
                CHANNELS 3 Zrotation Xrotation Yrotation
                JOINT rRing2
                {
                  OFFSET -2.60934 -0.819778 -0.0198488
                  CHANNELS 3 Zrotation Xrotation Yrotation
                  End Site
                  {
                    OFFSET -2.33842 -0.294052 0.168128
                  }
                }
              }
              JOINT rPinky1
              {
                OFFSET -8.27202 -0.0477905 -0.4584
                CHANNELS 3 Zrotation Xrotation Yrotation
                JOINT rPinky2
                {
                  OFFSET -1.82734 -0.647385 -0.700984
                  CHANNELS 3 Zrotation Xrotation Yrotation
                  End Site
                  {
                    OFFSET -1.69225 -0.51767 -0.607171
                  }
                }
              }
            }
          }
        }
      }
      JOINT lCollar
      {
        OFFSET 2.68224 19.2634 -4.8768
        CHANNELS 3 Zrotation Xrotation Yrotation
        JOINT lShldr
        {
          OFFSET 8.77824 -1.95073 1.46304
          CHANNELS 3 Zrotation Xrotation Yrotation
          JOINT lForeArm
          {
            OFFSET 28.1742 -1.7115 0.48768
            CHANNELS 3 Zrotation Xrotation Yrotation
            JOINT lHand
            {
              OFFSET 22.5879 0.773209 7.07136
              CHANNELS 3 Zrotation Xrotation Yrotation
              JOINT lThumb1
              {
                OFFSET 1.2192 -0.487915 3.41376
                CHANNELS 3 Zrotation Xrotation Yrotation
                JOINT lThumb2
                {
                  OFFSET 3.37035 -0.52449 3.41376
                  CHANNELS 3 Zrotation Xrotation Yrotation
                  End Site
                  {
                    OFFSET 1.78271 -1.18214 1.43049
                  }
                }
              }
              JOINT lIndex1
              {
                OFFSET 7.75947 0.938293 5.60832
                CHANNELS 3 Zrotation Xrotation Yrotation
                JOINT lIndex2
                {
                  OFFSET 2.54057 -0.884171 1.56538
                  CHANNELS 3 Zrotation Xrotation Yrotation
                  End Site
                  {
                    OFFSET 1.62519 -0.234802 1.16502
                  }
                }
              }
              JOINT lMid1
              {
                OFFSET 8.24714 1.18213 3.41376
                CHANNELS 3 Zrotation Xrotation Yrotation
                JOINT lMid2
                {
                  OFFSET 3.10165 -0.590103 1.0647
                  CHANNELS 3 Zrotation Xrotation Yrotation
                  End Site
                  {
                    OFFSET 2.48547 -0.328903 0.83742
                  }
                }
              }
              JOINT lRing1
              {
                OFFSET 8.82822 0.546677 1.51678
                CHANNELS 3 Zrotation Xrotation Yrotation
                JOINT lRing2
                {
                  OFFSET 2.60934 -0.819778 -0.0198488
                  CHANNELS 3 Zrotation Xrotation Yrotation
                  End Site
                  {
                    OFFSET 2.33842 -0.294052 0.168128
                  }
                }
              }
              JOINT lPinky1
              {
                OFFSET 8.27202 -0.0477905 -0.4584
                CHANNELS 3 Zrotation Xrotation Yrotation
                JOINT lPinky2
                {
                  OFFSET 1.82734 -0.647385 -0.700984
                  CHANNELS 3 Zrotation Xrotation Yrotation
                  End Site
                  {
                    OFFSET 1.69225 -0.51767 -0.607171
                  }
                }
              }
            }
          }
        }
      }
    }
  }
  JOINT rButtock
  {
    OFFSET -8.77824 4.35084 1.2192
    CHANNELS 3 Zrotation Xrotation Yrotation
    JOINT rThigh
    {
      OFFSET 0 -1.70687 -2.19456
      CHANNELS 3 Zrotation Xrotation Yrotation
      JOINT rShin
      {
        OFFSET 0 -36.8199 0.73152
        CHANNELS 3 Zrotation Xrotation Yrotation
        JOINT rFoot
        {
          OFFSET 0.73152 -45.1104 -5.12064
          CHANNELS 3 Zrotation Xrotation Yrotation
          End Site
          {
            OFFSET -1.1221 -3.69964 12.103
          }
        }
      }
    }
  }
  JOINT lButtock
  {
    OFFSET 8.77824 4.35084 1.2192
    CHANNELS 3 Zrotation Xrotation Yrotation
    JOINT lThigh
    {
      OFFSET 0 -1.70687 -2.19456
      CHANNELS 3 Zrotation Xrotation Yrotation
      JOINT lShin
      {
        OFFSET 0 -36.8199 0.73152
        CHANNELS 3 Zrotation Xrotation Yrotation
        JOINT lFoot
        {
          OFFSET -0.73152 -45.1104 -5.12064
          CHANNELS 3 Zrotation Xrotation Yrotation
          End Site
          {
            OFFSET 1.1221 -3.69964 12.103
          }
        }
      }
    }
  }
}
MOTION
Frames:	6
Frame Time:	0.00833333
234.774 84.0842 5.94477 0.0 0.0 0.0 -1.54496 -0.00284631 -0.0420521 -0.425432 0.00110982 -0.0736767 -1.80047e-14 0.0 2.48481e-16 -5.37775e-14 3.18055e-15 6.42944e-16 -0.0 0.0 0.0 -0.0 0.0 0.0 -8.89739e-15 -2.79541e-17 2.48481e-16 -1.85747e-13 -9.93923e-17 2.18663e-15 -3.22995e-12 9.45817e-13 5.725e-14 -3.69626e-11 -1.07354e-12 3.75305e-13 -8.71931e-11 -2.87499e-13 9.57347e-13 -1.50589e-10 -4.99347e-13 1.65389e-12 -8.71878e-11 -2.88238e-13 9.54166e-13 7.73091 5.47488 0.417314 -8.71936e-11 -2.8784e-13 9.57347e-13 2.90554 0.965183 0.102902 -8.71899e-11 -2.87741e-13 9.56552e-13 10.2786 0.731801 0.0259123 -8.71977e-11 -2.86647e-13 9.66889e-13 2.22167 -0.733487 -0.20892 -8.99382e-15 -2.776e-17 -4.96962e-17 -1.8967e-13 -1.05604e-16 5.96354e-16 -3.23169e-12 -9.83984e-13 8.26944e-14 -3.6967e-11 8.61607e-13 3.62583e-13 -8.71963e-11 -2.75624e-13 9.70069e-13 -1.50577e-10 -4.80264e-13 1.67933e-12 -8.72017e-11 -2.75516e-13 9.7325e-13 -7.73091 5.47488 -0.417314 -8.71962e-11 -2.75217e-13 9.70069e-13 -2.90554 0.965183 -0.102902 -8.72049e-11 -2.75317e-13 9.69274e-13 -10.2786 0.731801 -0.0259123 -8.71889e-11 -2.72335e-13 9.63708e-13 -2.22167 -0.733487 0.20892 -2.03217e-16 0.0 -3.88251e-19 -0.631468 -1.92333 -0.00658936 -0.00945229 -2.07853 -0.0781754 -0.541063 3.99724 0.144585 2.03217e-16 0.0 3.88251e-19 -1.71416 -6.54909 0.158521 -0.00227315 6.30066 -0.0690943 0.559207 0.243948 -0.0686133
230.215 82.5501 1.38828 39.7613 -85.5078 -35.2299 -3.26107 -1.09264 -1.48062 0.789079 0.0202571 -0.475309 1.09141 1.92535 0.268992 -0.464169 -3.2452 0.255722 -0.0 0.0 0.0 -0.0 0.0 0.0 -2.96632e-14 9.22991e-13 3.69732e-15 21.916 -6.06948 -1.27678 -1.33607 -0.415817 2.24797 0.170992 9.19488 1.23297 2.20983e-10 1.75679e-10 -3.82477e-10 3.71193e-10 3.08225e-10 -6.67226e-10 2.20989e-10 1.75678e-10 -3.82481e-10 7.73091 5.47488 0.417314 2.20982e-10 1.75677e-10 -3.82475e-10 2.90554 0.965183 0.102902 2.20989e-10 1.75678e-10 -3.82478e-10 10.2786 0.731801 0.0259123 2.2098e-10 1.75679e-10 -3.8247e-10 2.22167 -0.733487 -0.20892 -2.97909e-14 9.22992e-13 3.39332e-15 -23.4271 -7.75492 0.871701 1.33601 -0.41584 -2.2479 -0.179396 9.4193 -1.26011 -1.70355e-10 1.71521e-10 5.29311e-10 -2.80282e-10 2.96511e-10 9.15843e-10 -1.7036e-10 1.71522e-10 5.29314e-10 -7.73091 5.47488 -0.417314 -1.70355e-10 1.71522e-10 5.29311e-10 -2.90554 0.965183 -0.102902 -1.70364e-10 1.71522e-10 5.2931e-10 -10.2786 0.731801 -0.0259123 -1.70348e-10 1.71524e-10 5.29303e-10 -2.22167 -0.733487 0.20892 -2.03217e-16 0.0 -3.88251e-19 -3.09126 -4.80763 0.624062 0.0162875 6.24601 0.0795489 -1.23641 -0.849647 -6.31563 2.03217e-16 0.0 3.88251e-19 -1.02735 -9.12216 -1.99033 -0.00821704 13.5237 -0.193182 1.53593 -4.40002 6.70499
230.216 82.5495 1.39104 39.6027 -85.4865 -35.0728 -5.1327 -2.24056 -3.00335 2.07596 0.0308863 -0.899701 2.21894 3.97208 0.554238 -0.915408 -6.71029 0.531527 -0.0 0.0 0.0 -0.0 0.0 0.0 -5.05473e-14 1.86356e-12 7.01027e-15 44.7782 -12.4718 -2.68789 -2.71533 -0.854106 4.62865 -0.100734 18.9 2.6465 6.2176e-10 4.47952e-10 -9.39833e-10 1.04821e-09 7.8434e-10 -1.63848e-09 6.21766e-10 4.47952e-10 -9.39838e-10 7.73091 5.47488 0.417314 6.21759e-10 4.47948e-10 -9.39829e-10 2.90554 0.965183 0.102902 6.21768e-10 4.47951e-10 -9.39835e-10 10.2786 0.731801 0.0259123 6.21758e-10 4.47951e-10 -9.3983e-10 2.22167 -0.733487 -0.20892 -5.0712e-14 1.86356e-12 6.69656e-15 -47.9275 -15.9473 1.86109 2.71649 -0.85469 -4.63069 0.10588 19.3591 -2.71036 -3.494e-10 4.00513e-10 1.23201e-09 -5.70745e-10 6.9306e-10 2.13332e-09 -3.49404e-10 4.00516e-10 1.23201e-09 -7.73091 5.47488 -0.417314 -3.49399e-10 4.00516e-10 1.232e-09 -2.90554 0.965183 -0.102902 -3.49409e-10 4.00516e-10 1.232e-09 -10.2786 0.731801 -0.0259123 -3.49393e-10 4.00516e-10 1.23199e-09 -2.22167 -0.733487 0.20892 -2.03217e-16 0.0 -3.88251e-19 -5.61966 -7.85771 1.30132 -0.00764759 15.0435 0.253904 -3.15323 -5.82411 -13.2114 2.03217e-16 0.0 3.88251e-19 -0.511442 -11.8243 -4.29475 0.0220328 21.16 -0.336463 3.76282 -9.09708 14.0001
230.22 82.5474 1.38372 38.777 -85.4827 -34.2283 -6.85751 -3.26386 -4.36404 3.2189 0.0585392 -1.27857 3.21977 5.77553 0.810635 -1.30453 -9.73482 0.777126 -0.0 0.0 0.0 -0.0 0.0 0.0 -7.11947e-14 2.76903e-12 1.0595e-14 64.9009 -18.1713 -4.0091 -3.91056 -1.23977 6.74533 -0.802036 27.5301 4.11839 8.37336e-10 5.27611e-10 -1.14934e-09 1.41476e-09 9.25674e-10 -2.00499e-09 8.37342e-10 5.27612e-10 -1.14935e-09 7.73091 5.47488 0.417314 8.37334e-10 5.27606e-10 -1.14934e-09 2.90554 0.965183 0.102902 8.37345e-10 5.2761e-10 -1.14935e-09 10.2786 0.731801 0.0259123 8.37334e-10 5.2761e-10 -1.14934e-09 2.22167 -0.733487 -0.20892 -7.13851e-14 2.76903e-12 1.02793e-14 -69.5205 -23.2422 2.82022 3.91036 -1.23984 -6.74509 0.845879 28.1994 -4.23247 -3.36672e-10 5.15113e-10 1.58599e-09 -5.39692e-10 8.90494e-10 2.74417e-09 -3.36675e-10 5.15117e-10 1.586e-09 -7.73091 5.47488 -0.417314 -3.36672e-10 5.15116e-10 1.58599e-09 -2.90554 0.965183 -0.102902 -3.36681e-10 5.15116e-10 1.58599e-09 -10.2786 0.731801 -0.0259123 -3.36666e-10 5.15116e-10 1.58598e-09 -2.22167 -0.733487 0.20892 -2.03217e-16 0.0 -3.88251e-19 -7.81743 -10.5713 1.91122 -0.0781096 22.8945 0.427127 -5.87898 -9.96347 -19.5397 2.03217e-16 0.0 3.88251e-19 -0.248288 -14.1989 -6.40692 0.0858191 27.9692 -0.482477 6.77805 -12.9165 20.7406
230.221 82.5465 1.3735 38.6357 -85.5257 -34.0807 -8.09973 -3.98353 -5.31373 4.00206 0.128749 -1.54365 3.94287 6.97127 0.99133 -1.60385 -11.6588 0.937007 -0.0 0.0 0.0 -0.0 0.0 0.0 -9.12505e-14 3.58676e-12 1.48592e-14 78.7981 -22.1506 -4.93224 -4.71516 -1.50128 8.20067 -1.61015 33.5241 5.34237 5.89907e-10 1.25735e-10 -4.89242e-10 1.0051e-09 2.30053e-10 -8.59608e-10 5.89913e-10 1.25736e-10 -4.89249e-10 7.73091 5.47488 0.417314 5.89905e-10 1.2573e-10 -4.89236e-10 2.90554 0.965183 0.102902 5.89917e-10 1.25734e-10 -4.89245e-10 10.2786 0.731801 0.0259123 5.89906e-10 1.25734e-10 -4.89242e-10 2.22167 -0.733487 -0.20892 -9.14386e-14 3.58676e-12 1.4561e-14 -84.4185 -28.3164 3.50254 4.70748 -1.49822 -8.18716 1.70421 34.3455 -5.51085 1.55486e-10 3.4373e-10 1.06821e-09 2.95151e-10 5.90142e-10 1.83847e-09 1.55484e-10 3.43734e-10 1.06822e-09 -7.73091 5.47488 -0.417314 1.55487e-10 3.43734e-10 1.06821e-09 -2.90554 0.965183 -0.102902 1.55477e-10 3.43734e-10 1.06821e-09 -10.2786 0.731801 -0.0259123 1.55491e-10 3.43733e-10 1.0682e-09 -2.22167 -0.733487 0.20892 -2.03217e-16 0.0 -3.88251e-19 -9.32779 -12.4484 2.32931 -0.159477 28.3801 0.565042 -8.34347 -12.6049 -24.1013 2.03217e-16 0.0 3.88251e-19 -0.19486 -15.814 -7.94135 0.154964 32.7111 -0.59954 9.44789 -15.2782 25.6241
230.213 82.5506 1.39352 38.4468 -85.4163 -33.9408 -8.61423 -4.28147 -5.6779 4.27451 0.281784 -1.64843 4.3111 7.31792 1.06039 -1.81519 -12.129 0.963266 -0.0 0.0 0.0 -0.0 0.0 0.0 -1.16886e-13 4.4967e-12 1.86337e-14 84.3025 -23.76 -5.14068 -5.00079 -1.59324 8.72479 -2.01388 35.8659 5.88389 -4.58113e-10 -1.15376e-09 1.74918e-09 -7.44903e-10 -1.99024e-09 3.02882e-09 -4.58107e-10 -1.15376e-09 1.74918e-09 7.73091 5.47488 0.417314 -4.58115e-10 -1.15377e-09 1.74919e-09 2.90554 0.965183 0.102902 -4.58104e-10 -1.15376e-09 1.74918e-09 10.2786 0.731801 0.0259123 -4.58114e-10 -1.15376e-09 1.74919e-09 2.22167 -0.733487 -0.20892 -1.17025e-13 4.4967e-12 1.83907e-14 -90.2505 -30.2951 3.61101 4.97859 -1.5838 -8.68517 2.1375 36.765 -6.08416 1.55161e-09 -3.37096e-10 -9.92931e-10 2.64808e-09 -5.97413e-10 -1.75354e-09 1.55161e-09 -3.37092e-10 -9.92927e-10 -7.73091 5.47488 -0.417314 1.55161e-09 -3.37092e-10 -9.9293e-10 -2.90554 0.965183 -0.102902 1.5516e-09 -3.37092e-10 -9.92933e-10 -10.2786 0.731801 -0.0259123 1.55161e-09 -3.37092e-10 -9.92942e-10 -2.22167 -0.733487 0.20892 -2.03217e-16 0.0 -3.88251e-19 -9.93743 -13.1561 2.4667 -0.199927 30.5579 0.625264 -9.45284 -13.5971 -25.9457 2.03217e-16 0.0 3.88251e-19 -0.249155 -16.3986 -8.62696 0.188495 34.5587 -0.649856 10.6405 -16.1151 27.6405
